<svg width="32" height="32" viewBox="0 0 32 32" fill="none" xmlns="http://www.w3.org/2000/svg">
<g clip-path="url(#clip0_14_40810)">
<path d="M16.0003 14.6665C17.7684 14.6665 19.4641 15.3689 20.7144 16.6191C21.9646 17.8694 22.667 19.5651 22.667 21.3332V29.3332H9.33366V21.3332C9.33366 19.5651 10.036 17.8694 11.2863 16.6191C12.5365 15.3689 14.2322 14.6665 16.0003 14.6665ZM7.05099 18.6745C6.8388 19.3902 6.71346 20.1289 6.67766 20.8745L6.66699 21.3332V29.3332H2.66699V23.3332C2.66673 22.1833 3.09103 21.0738 3.85851 20.2174C4.62598 19.3611 5.68259 18.8183 6.82566 18.6932L7.05099 18.6745ZM24.9497 18.6745C26.1362 18.7468 27.2505 19.2691 28.0651 20.1348C28.8798 21.0005 29.3335 22.1444 29.3337 23.3332V29.3332H25.3337V21.3332C25.3337 20.4092 25.2003 19.5172 24.9497 18.6745ZM7.33366 10.6665C8.21771 10.6665 9.06556 11.0177 9.69068 11.6428C10.3158 12.2679 10.667 13.1158 10.667 13.9998C10.667 14.8839 10.3158 15.7317 9.69068 16.3569C9.06556 16.982 8.21771 17.3332 7.33366 17.3332C6.4496 17.3332 5.60176 16.982 4.97664 16.3569C4.35152 15.7317 4.00033 14.8839 4.00033 13.9998C4.00033 13.1158 4.35152 12.2679 4.97664 11.6428C5.60176 11.0177 6.4496 10.6665 7.33366 10.6665ZM24.667 10.6665C25.551 10.6665 26.3989 11.0177 27.024 11.6428C27.6491 12.2679 28.0003 13.1158 28.0003 13.9998C28.0003 14.8839 27.6491 15.7317 27.024 16.3569C26.3989 16.982 25.551 17.3332 24.667 17.3332C23.7829 17.3332 22.9351 16.982 22.31 16.3569C21.6848 15.7317 21.3337 14.8839 21.3337 13.9998C21.3337 13.1158 21.6848 12.2679 22.31 11.6428C22.9351 11.0177 23.7829 10.6665 24.667 10.6665ZM16.0003 2.6665C17.4148 2.6665 18.7714 3.22841 19.7716 4.2286C20.7718 5.2288 21.3337 6.58535 21.3337 7.99984C21.3337 9.41432 20.7718 10.7709 19.7716 11.7711C18.7714 12.7713 17.4148 13.3332 16.0003 13.3332C14.5858 13.3332 13.2293 12.7713 12.2291 11.7711C11.2289 10.7709 10.667 9.41432 10.667 7.99984C10.667 6.58535 11.2289 5.2288 12.2291 4.2286C13.2293 3.22841 14.5858 2.6665 16.0003 2.6665Z" fill="white"/>
</g>
<defs>
<clipPath id="clip0_14_40810">
<rect width="32" height="32" fill="white"/>
</clipPath>
</defs>
</svg>
